<?xml version="1.0" encoding="UTF-8" standalone="no"?>
<!DOCTYPE svg PUBLIC "-//W3C//DTD SVG 1.1//EN"
 "http://www.w3.org/Graphics/SVG/1.1/DTD/svg11.dtd">
<!-- Generated by graphviz version 12.2.1 (20241206.2353)
 -->
<!-- Title: gm Pages: 1 -->
<svg width="1776pt" height="402pt"
 viewBox="0.00 0.00 1775.50 402.40" xmlns="http://www.w3.org/2000/svg" xmlns:xlink="http://www.w3.org/1999/xlink">
<g id="graph0" class="graph" transform="scale(1 1) rotate(0) translate(4 398.4)">
<title>gm</title>
<polygon fill="white" stroke="none" points="-4,4 -4,-398.4 1771.5,-398.4 1771.5,4 -4,4"/>
<!-- ENTRY -->
<g id="node1" class="node">
<title>ENTRY</title>
<ellipse fill="black" stroke="black" cx="1.8" cy="-127" rx="1.8" ry="1.8"/>
</g>
<!-- 1 -->
<g id="node6" class="node">
<title>1</title>
<ellipse fill="none" stroke="black" cx="151" cy="-107" rx="23.4" ry="23.4"/>
<text text-anchor="middle" x="151" y="-101.95" font-family="Times,serif" font-size="14.00">1</text>
</g>
<!-- ENTRY&#45;&gt;1 -->
<g id="edge31" class="edge">
<title>ENTRY&#45;&gt;1</title>
<path fill="none" stroke="black" d="M4.07,-126.83C13.72,-125.52 76.04,-117.05 116.05,-111.61"/>
<polygon fill="black" stroke="black" points="116.49,-115.09 125.93,-110.27 115.55,-108.15 116.49,-115.09"/>
<text text-anchor="middle" x="63.6" y="-127.3" font-family="Times,serif" font-size="14.00">IN</text>
</g>
<!-- en_24 -->
<g id="node2" class="node">
<title>en_24</title>
<ellipse fill="black" stroke="black" cx="1.8" cy="-329" rx="1.8" ry="1.8"/>
</g>
<!-- 24 -->
<g id="node5" class="node">
<title>24</title>
<ellipse fill="none" stroke="black" cx="151" cy="-329" rx="23.4" ry="23.4"/>
<ellipse fill="none" stroke="black" cx="151" cy="-329" rx="27.4" ry="27.4"/>
<text text-anchor="middle" x="151" y="-323.95" font-family="Times,serif" font-size="14.00">24</text>
</g>
<!-- en_24&#45;&gt;24 -->
<g id="edge32" class="edge">
<title>en_24&#45;&gt;24</title>
<path fill="none" stroke="black" d="M4.07,-329C13.39,-329 71.81,-329 111.85,-329"/>
<polygon fill="black" stroke="black" points="111.84,-332.5 121.84,-329 111.84,-325.5 111.84,-332.5"/>
<text text-anchor="middle" x="63.6" y="-332.2" font-family="Times,serif" font-size="14.00">OPE_GM_data</text>
</g>
<!-- en_1 -->
<g id="node3" class="node">
<title>en_1</title>
<ellipse fill="black" stroke="black" cx="1.8" cy="-87" rx="1.8" ry="1.8"/>
</g>
<!-- en_1&#45;&gt;1 -->
<g id="edge33" class="edge">
<title>en_1&#45;&gt;1</title>
<path fill="none" stroke="black" d="M3.83,-86.95C11.76,-86.62 64.14,-84.76 105.6,-92.5 109.55,-93.24 113.63,-94.23 117.64,-95.35"/>
<polygon fill="black" stroke="black" points="116.58,-98.69 127.17,-98.31 118.66,-92.01 116.58,-98.69"/>
<text text-anchor="middle" x="63.6" y="-95.7" font-family="Times,serif" font-size="14.00">main</text>
</g>
<!-- 23 -->
<g id="node4" class="node">
<title>23</title>
<ellipse fill="none" stroke="black" cx="429.58" cy="-227" rx="23.4" ry="23.4"/>
<ellipse fill="none" stroke="black" cx="429.58" cy="-227" rx="27.4" ry="27.4"/>
<text text-anchor="middle" x="429.58" y="-221.95" font-family="Times,serif" font-size="14.00">23</text>
</g>
<!-- 19 -->
<g id="node24" class="node">
<title>19</title>
<ellipse fill="none" stroke="black" cx="288.05" cy="-367" rx="23.4" ry="23.4"/>
<text text-anchor="middle" x="288.05" y="-361.95" font-family="Times,serif" font-size="14.00">19</text>
</g>
<!-- 24&#45;&gt;19 -->
<g id="edge30" class="edge">
<title>24&#45;&gt;19</title>
<path fill="none" stroke="black" d="M177.72,-336.24C199.42,-342.34 230.63,-351.12 254.15,-357.74"/>
<polygon fill="black" stroke="black" points="252.97,-361.05 263.54,-360.39 254.87,-354.31 252.97,-361.05"/>
<text text-anchor="middle" x="221.53" y="-357.91" font-family="Times,serif" font-size="14.00">&#39;0&#39;..&#39;9&#39; / ts</text>
</g>
<!-- 2 -->
<g id="node7" class="node">
<title>2</title>
<ellipse fill="none" stroke="black" cx="288.05" cy="-107" rx="23.4" ry="23.4"/>
<text text-anchor="middle" x="288.05" y="-101.95" font-family="Times,serif" font-size="14.00">2</text>
</g>
<!-- 1&#45;&gt;2 -->
<g id="edge1" class="edge">
<title>1&#45;&gt;2</title>
<path fill="none" stroke="black" d="M174.6,-107C196.03,-107 228.49,-107 253.04,-107"/>
<polygon fill="black" stroke="black" points="252.86,-110.5 262.86,-107 252.86,-103.5 252.86,-110.5"/>
<text text-anchor="middle" x="221.53" y="-110.2" font-family="Times,serif" font-size="14.00">2</text>
</g>
<!-- 2&#45;&gt;23 -->
<g id="edge2" class="edge">
<title>2&#45;&gt;23</title>
<path fill="none" stroke="black" d="M303.21,-124.82C310.62,-133.69 320.08,-144.34 329.45,-153 350.59,-172.54 376.78,-191.91 396.92,-205.93"/>
<polygon fill="black" stroke="black" points="394.81,-208.72 405.03,-211.5 398.77,-202.95 394.81,-208.72"/>
<text text-anchor="middle" x="345.2" y="-182.46" font-family="Times,serif" font-size="14.00">3 / ok</text>
</g>
<!-- 3 -->
<g id="node8" class="node">
<title>3</title>
<ellipse fill="none" stroke="black" cx="429.58" cy="-158" rx="23.4" ry="23.4"/>
<text text-anchor="middle" x="429.58" y="-152.95" font-family="Times,serif" font-size="14.00">3</text>
</g>
<!-- 2&#45;&gt;3 -->
<g id="edge3" class="edge">
<title>2&#45;&gt;3</title>
<path fill="none" stroke="black" d="M310.55,-114.86C333.55,-123.27 370.3,-136.7 396.68,-146.34"/>
<polygon fill="black" stroke="black" points="395.27,-149.55 405.86,-149.7 397.67,-142.98 395.27,-149.55"/>
<text text-anchor="middle" x="345.2" y="-135.7" font-family="Times,serif" font-size="14.00">27</text>
</g>
<!-- 4 -->
<g id="node9" class="node">
<title>4</title>
<ellipse fill="none" stroke="black" cx="569.6" cy="-183" rx="23.4" ry="23.4"/>
<text text-anchor="middle" x="569.6" y="-177.95" font-family="Times,serif" font-size="14.00">4</text>
</g>
<!-- 3&#45;&gt;4 -->
<g id="edge4" class="edge">
<title>3&#45;&gt;4</title>
<path fill="none" stroke="black" d="M453.06,-162.07C475.32,-166.1 509.66,-172.32 535.13,-176.94"/>
<polygon fill="black" stroke="black" points="534.17,-180.32 544.64,-178.66 535.42,-173.43 534.17,-180.32"/>
<text text-anchor="middle" x="513.2" y="-178.81" font-family="Times,serif" font-size="14.00">&#39;A&#39;</text>
</g>
<!-- 5 -->
<g id="node10" class="node">
<title>5</title>
<ellipse fill="none" stroke="black" cx="682.4" cy="-183" rx="23.4" ry="23.4"/>
<text text-anchor="middle" x="682.4" y="-177.95" font-family="Times,serif" font-size="14.00">5</text>
</g>
<!-- 4&#45;&gt;5 -->
<g id="edge5" class="edge">
<title>4&#45;&gt;5</title>
<path fill="none" stroke="black" d="M593.29,-183C608.82,-183 629.71,-183 647.24,-183"/>
<polygon fill="black" stroke="black" points="647.23,-186.5 657.23,-183 647.23,-179.5 647.23,-186.5"/>
<text text-anchor="middle" x="626" y="-186.2" font-family="Times,serif" font-size="14.00">27</text>
</g>
<!-- 5&#45;&gt;2 -->
<g id="edge9" class="edge">
<title>5&#45;&gt;2</title>
<path fill="none" stroke="black" d="M660.22,-174.46C642.47,-167.51 616.35,-157.78 593,-151 543.69,-136.68 530.91,-134.11 480.2,-126 425.44,-117.24 361.16,-111.84 322.84,-109.14"/>
<polygon fill="black" stroke="black" points="323.55,-105.68 313.33,-108.49 323.07,-112.66 323.55,-105.68"/>
<text text-anchor="middle" x="513.2" y="-137.38" font-family="Times,serif" font-size="14.00">&#39;Z&#39;</text>
</g>
<!-- 6 -->
<g id="node11" class="node">
<title>6</title>
<ellipse fill="none" stroke="black" cx="1424" cy="-107" rx="23.4" ry="23.4"/>
<text text-anchor="middle" x="1424" y="-101.95" font-family="Times,serif" font-size="14.00">6</text>
</g>
<!-- 5&#45;&gt;6 -->
<g id="edge6" class="edge">
<title>5&#45;&gt;6</title>
<path fill="none" stroke="black" d="M706.06,-183.74C725.31,-184.31 753.69,-185 778.45,-185 778.45,-185 778.45,-185 1327.95,-185 1360.08,-185 1387.28,-158.04 1404.25,-135.82"/>
<polygon fill="black" stroke="black" points="1406.95,-138.06 1409.99,-127.91 1401.28,-133.95 1406.95,-138.06"/>
<text text-anchor="middle" x="1061.45" y="-188.2" font-family="Times,serif" font-size="14.00">&#39;G&#39;</text>
</g>
<!-- 9 -->
<g id="node12" class="node">
<title>9</title>
<ellipse fill="none" stroke="black" cx="779.45" cy="-236" rx="23.4" ry="23.4"/>
<text text-anchor="middle" x="779.45" y="-230.95" font-family="Times,serif" font-size="14.00">9</text>
</g>
<!-- 5&#45;&gt;9 -->
<g id="edge7" class="edge">
<title>5&#45;&gt;9</title>
<path fill="none" stroke="black" d="M703.09,-193.98C716.26,-201.32 733.83,-211.12 748.69,-219.4"/>
<polygon fill="black" stroke="black" points="746.69,-222.3 757.13,-224.11 750.1,-216.19 746.69,-222.3"/>
<text text-anchor="middle" x="730.93" y="-215.87" font-family="Times,serif" font-size="14.00">&#39;H&#39;</text>
</g>
<!-- 13 -->
<g id="node13" class="node">
<title>13</title>
<ellipse fill="none" stroke="black" cx="779.45" cy="-134" rx="23.4" ry="23.4"/>
<text text-anchor="middle" x="779.45" y="-128.95" font-family="Times,serif" font-size="14.00">13</text>
</g>
<!-- 5&#45;&gt;13 -->
<g id="edge8" class="edge">
<title>5&#45;&gt;13</title>
<path fill="none" stroke="black" d="M701.27,-168.91C708.08,-163.95 716.06,-158.59 723.8,-154.5 730.78,-150.81 738.58,-147.46 746.04,-144.6"/>
<polygon fill="black" stroke="black" points="746.99,-147.98 755.19,-141.27 744.6,-141.4 746.99,-147.98"/>
<text text-anchor="middle" x="730.93" y="-157.7" font-family="Times,serif" font-size="14.00">&#39;V&#39;</text>
</g>
<!-- 7 -->
<g id="node14" class="node">
<title>7</title>
<ellipse fill="none" stroke="black" cx="1647.8" cy="-51" rx="23.4" ry="23.4"/>
<text text-anchor="middle" x="1647.8" y="-45.95" font-family="Times,serif" font-size="14.00">7</text>
</g>
<!-- 6&#45;&gt;7 -->
<g id="edge10" class="edge">
<title>6&#45;&gt;7</title>
<path fill="none" stroke="black" d="M1442.53,-92.57C1449.3,-87.7 1457.35,-82.68 1465.4,-79.5 1514.22,-60.19 1575.29,-53.93 1612.65,-51.92"/>
<polygon fill="black" stroke="black" points="1612.56,-55.43 1622.39,-51.47 1612.24,-48.43 1612.56,-55.43"/>
<text text-anchor="middle" x="1535.9" y="-82.7" font-family="Times,serif" font-size="14.00">&#39;M&#39; / call_GM_data, initts</text>
</g>
<!-- 10 -->
<g id="node16" class="node">
<title>10</title>
<ellipse fill="none" stroke="black" cx="892.25" cy="-236" rx="23.4" ry="23.4"/>
<text text-anchor="middle" x="892.25" y="-230.95" font-family="Times,serif" font-size="14.00">10</text>
</g>
<!-- 9&#45;&gt;10 -->
<g id="edge14" class="edge">
<title>9&#45;&gt;10</title>
<path fill="none" stroke="black" d="M803.14,-236C818.67,-236 839.56,-236 857.09,-236"/>
<polygon fill="black" stroke="black" points="857.08,-239.5 867.08,-236 857.08,-232.5 857.08,-239.5"/>
<text text-anchor="middle" x="835.85" y="-239.2" font-family="Times,serif" font-size="14.00">&#39;0&#39;..&#39;9&#39;</text>
</g>
<!-- 14 -->
<g id="node19" class="node">
<title>14</title>
<ellipse fill="none" stroke="black" cx="892.25" cy="-134" rx="23.4" ry="23.4"/>
<text text-anchor="middle" x="892.25" y="-128.95" font-family="Times,serif" font-size="14.00">14</text>
</g>
<!-- 13&#45;&gt;14 -->
<g id="edge18" class="edge">
<title>13&#45;&gt;14</title>
<path fill="none" stroke="black" d="M803.14,-134C818.67,-134 839.56,-134 857.09,-134"/>
<polygon fill="black" stroke="black" points="857.08,-137.5 867.08,-134 857.08,-130.5 857.08,-137.5"/>
<text text-anchor="middle" x="835.85" y="-137.2" font-family="Times,serif" font-size="14.00">&#39;0&#39;..&#39;9&#39;</text>
</g>
<!-- 8 -->
<g id="node15" class="node">
<title>8</title>
<ellipse fill="none" stroke="black" cx="1744.1" cy="-51" rx="23.4" ry="23.4"/>
<text text-anchor="middle" x="1744.1" y="-45.95" font-family="Times,serif" font-size="14.00">8</text>
</g>
<!-- 7&#45;&gt;8 -->
<g id="edge11" class="edge">
<title>7&#45;&gt;8</title>
<path fill="none" stroke="black" d="M1671.63,-51C1682.86,-51 1696.64,-51 1709.08,-51"/>
<polygon fill="black" stroke="black" points="1708.97,-54.5 1718.97,-51 1708.97,-47.5 1708.97,-54.5"/>
<text text-anchor="middle" x="1695.95" y="-54.2" font-family="Times,serif" font-size="14.00">27</text>
</g>
<!-- 8&#45;&gt;2 -->
<g id="edge13" class="edge">
<title>8&#45;&gt;2</title>
<path fill="none" stroke="black" d="M1726.49,-35.42C1708.71,-20.42 1678.95,0 1648.8,0 428.58,0 428.58,0 428.58,0 376.84,0 332.46,-46.89 308.37,-78.59"/>
<polygon fill="black" stroke="black" points="305.54,-76.52 302.45,-86.65 311.19,-80.66 305.54,-76.52"/>
<text text-anchor="middle" x="1005.05" y="-3.2" font-family="Times,serif" font-size="14.00">&#39;Z&#39;</text>
</g>
<!-- 8&#45;&gt;6 -->
<g id="edge12" class="edge">
<title>8&#45;&gt;6</title>
<path fill="none" stroke="black" d="M1722.9,-61.8C1708.79,-68.88 1689.32,-77.77 1671.2,-83 1597.6,-104.24 1507.03,-107.53 1458.87,-107.58"/>
<polygon fill="black" stroke="black" points="1459.11,-104.08 1449.1,-107.53 1459.08,-111.08 1459.11,-104.08"/>
<text text-anchor="middle" x="1647.8" y="-96.53" font-family="Times,serif" font-size="14.00">&#39;G&#39;</text>
</g>
<!-- 11 -->
<g id="node17" class="node">
<title>11</title>
<ellipse fill="none" stroke="black" cx="1005.05" cy="-236" rx="23.4" ry="23.4"/>
<text text-anchor="middle" x="1005.05" y="-230.95" font-family="Times,serif" font-size="14.00">11</text>
</g>
<!-- 10&#45;&gt;11 -->
<g id="edge15" class="edge">
<title>10&#45;&gt;11</title>
<path fill="none" stroke="black" d="M915.94,-236C931.47,-236 952.36,-236 969.89,-236"/>
<polygon fill="black" stroke="black" points="969.88,-239.5 979.88,-236 969.88,-232.5 969.88,-239.5"/>
<text text-anchor="middle" x="948.65" y="-239.2" font-family="Times,serif" font-size="14.00">&#39;0&#39;..&#39;9&#39;</text>
</g>
<!-- 12 -->
<g id="node18" class="node">
<title>12</title>
<ellipse fill="none" stroke="black" cx="1117.85" cy="-267" rx="23.4" ry="23.4"/>
<text text-anchor="middle" x="1117.85" y="-261.95" font-family="Times,serif" font-size="14.00">12</text>
</g>
<!-- 11&#45;&gt;12 -->
<g id="edge16" class="edge">
<title>11&#45;&gt;12</title>
<path fill="none" stroke="black" d="M1027.94,-242.12C1043.95,-246.6 1065.94,-252.76 1084.05,-257.82"/>
<polygon fill="black" stroke="black" points="1082.97,-261.16 1093.55,-260.48 1084.86,-254.42 1082.97,-261.16"/>
<text text-anchor="middle" x="1061.45" y="-258.39" font-family="Times,serif" font-size="14.00">&#39;0&#39;..&#39;9&#39;</text>
</g>
<!-- 12&#45;&gt;4 -->
<g id="edge17" class="edge">
<title>12&#45;&gt;4</title>
<path fill="none" stroke="black" d="M1094.99,-273.33C1072.79,-279.19 1037.33,-287 1006.05,-287 681.4,-287 681.4,-287 681.4,-287 638.02,-287 604.66,-244.1 586.34,-213.41"/>
<polygon fill="black" stroke="black" points="589.46,-211.81 581.46,-204.86 583.38,-215.28 589.46,-211.81"/>
<text text-anchor="middle" x="835.85" y="-290.2" font-family="Times,serif" font-size="14.00">&#39;0&#39;..&#39;9&#39;</text>
</g>
<!-- 15 -->
<g id="node20" class="node">
<title>15</title>
<ellipse fill="none" stroke="black" cx="1005.05" cy="-134" rx="23.4" ry="23.4"/>
<text text-anchor="middle" x="1005.05" y="-128.95" font-family="Times,serif" font-size="14.00">15</text>
</g>
<!-- 14&#45;&gt;15 -->
<g id="edge19" class="edge">
<title>14&#45;&gt;15</title>
<path fill="none" stroke="black" d="M915.94,-134C931.47,-134 952.36,-134 969.89,-134"/>
<polygon fill="black" stroke="black" points="969.88,-137.5 979.88,-134 969.88,-130.5 969.88,-137.5"/>
<text text-anchor="middle" x="948.65" y="-137.2" font-family="Times,serif" font-size="14.00">&#39;0&#39;..&#39;9&#39;</text>
</g>
<!-- 16 -->
<g id="node21" class="node">
<title>16</title>
<ellipse fill="none" stroke="black" cx="1117.85" cy="-134" rx="23.4" ry="23.4"/>
<text text-anchor="middle" x="1117.85" y="-128.95" font-family="Times,serif" font-size="14.00">16</text>
</g>
<!-- 15&#45;&gt;16 -->
<g id="edge20" class="edge">
<title>15&#45;&gt;16</title>
<path fill="none" stroke="black" d="M1028.74,-134C1044.27,-134 1065.16,-134 1082.69,-134"/>
<polygon fill="black" stroke="black" points="1082.68,-137.5 1092.68,-134 1082.68,-130.5 1082.68,-137.5"/>
<text text-anchor="middle" x="1061.45" y="-137.2" font-family="Times,serif" font-size="14.00">&#39;0&#39;..&#39;9&#39;</text>
</g>
<!-- 17 -->
<g id="node22" class="node">
<title>17</title>
<ellipse fill="none" stroke="black" cx="1230.65" cy="-134" rx="23.4" ry="23.4"/>
<text text-anchor="middle" x="1230.65" y="-128.95" font-family="Times,serif" font-size="14.00">17</text>
</g>
<!-- 16&#45;&gt;17 -->
<g id="edge21" class="edge">
<title>16&#45;&gt;17</title>
<path fill="none" stroke="black" d="M1141.54,-134C1157.07,-134 1177.96,-134 1195.49,-134"/>
<polygon fill="black" stroke="black" points="1195.48,-137.5 1205.48,-134 1195.48,-130.5 1195.48,-137.5"/>
<text text-anchor="middle" x="1174.25" y="-137.2" font-family="Times,serif" font-size="14.00">&#39;0&#39;..&#39;9&#39;</text>
</g>
<!-- 18 -->
<g id="node23" class="node">
<title>18</title>
<ellipse fill="none" stroke="black" cx="1326.95" cy="-87" rx="23.4" ry="23.4"/>
<text text-anchor="middle" x="1326.95" y="-81.95" font-family="Times,serif" font-size="14.00">18</text>
</g>
<!-- 17&#45;&gt;18 -->
<g id="edge22" class="edge">
<title>17&#45;&gt;18</title>
<path fill="none" stroke="black" d="M1252.11,-123.8C1264.72,-117.52 1281.11,-109.35 1295.26,-102.3"/>
<polygon fill="black" stroke="black" points="1296.78,-105.45 1304.17,-97.85 1293.66,-99.18 1296.78,-105.45"/>
<text text-anchor="middle" x="1278.8" y="-116.51" font-family="Times,serif" font-size="14.00">27</text>
</g>
<!-- 18&#45;&gt;2 -->
<g id="edge25" class="edge">
<title>18&#45;&gt;2</title>
<path fill="none" stroke="black" d="M1307.52,-73.25C1289.25,-61 1259.97,-45 1231.65,-45 428.58,-45 428.58,-45 428.58,-45 386.79,-45 343.56,-68.51 316.51,-86.58"/>
<polygon fill="black" stroke="black" points="314.79,-83.51 308.55,-92.07 318.77,-89.27 314.79,-83.51"/>
<text text-anchor="middle" x="835.85" y="-48.2" font-family="Times,serif" font-size="14.00">&#39;Z&#39;</text>
</g>
<!-- 18&#45;&gt;6 -->
<g id="edge23" class="edge">
<title>18&#45;&gt;6</title>
<path fill="none" stroke="black" d="M1350,-91.64C1361.79,-94.12 1376.55,-97.23 1389.71,-100"/>
<polygon fill="black" stroke="black" points="1388.76,-103.37 1399.26,-102.01 1390.2,-96.52 1388.76,-103.37"/>
<text text-anchor="middle" x="1375.48" y="-101.4" font-family="Times,serif" font-size="14.00">&#39;G&#39;</text>
</g>
<!-- 18&#45;&gt;13 -->
<g id="edge24" class="edge">
<title>18&#45;&gt;13</title>
<path fill="none" stroke="black" d="M1303.48,-85.51C1284.38,-84.37 1256.23,-83 1231.65,-83 891.25,-83 891.25,-83 891.25,-83 860.72,-83 829.44,-99.17 807.93,-113.31"/>
<polygon fill="black" stroke="black" points="806,-110.39 799.74,-118.94 809.96,-116.16 806,-110.39"/>
<text text-anchor="middle" x="1061.45" y="-86.2" font-family="Times,serif" font-size="14.00">&#39;V&#39;</text>
</g>
<!-- 20 -->
<g id="node25" class="node">
<title>20</title>
<ellipse fill="none" stroke="black" cx="429.58" cy="-371" rx="23.4" ry="23.4"/>
<text text-anchor="middle" x="429.58" y="-365.95" font-family="Times,serif" font-size="14.00">20</text>
</g>
<!-- 19&#45;&gt;20 -->
<g id="edge26" class="edge">
<title>19&#45;&gt;20</title>
<path fill="none" stroke="black" d="M311.78,-367.65C334.18,-368.29 368.68,-369.28 394.39,-370.02"/>
<polygon fill="black" stroke="black" points="394.25,-373.52 404.34,-370.31 394.45,-366.52 394.25,-373.52"/>
<text text-anchor="middle" x="345.2" y="-372.2" font-family="Times,serif" font-size="14.00">&#39;0&#39;..&#39;9&#39;</text>
</g>
<!-- 21 -->
<g id="node26" class="node">
<title>21</title>
<ellipse fill="none" stroke="black" cx="569.6" cy="-367" rx="23.4" ry="23.4"/>
<text text-anchor="middle" x="569.6" y="-361.95" font-family="Times,serif" font-size="14.00">21</text>
</g>
<!-- 20&#45;&gt;21 -->
<g id="edge27" class="edge">
<title>20&#45;&gt;21</title>
<path fill="none" stroke="black" d="M453.37,-370.34C475.44,-369.7 509.2,-368.72 534.48,-367.99"/>
<polygon fill="black" stroke="black" points="534.37,-371.49 544.26,-367.71 534.16,-364.5 534.37,-371.49"/>
<text text-anchor="middle" x="513.2" y="-372.2" font-family="Times,serif" font-size="14.00">&#39;0&#39;..&#39;9&#39;</text>
</g>
<!-- 22 -->
<g id="node27" class="node">
<title>22</title>
<ellipse fill="none" stroke="black" cx="682.4" cy="-341" rx="23.4" ry="23.4"/>
<text text-anchor="middle" x="682.4" y="-335.95" font-family="Times,serif" font-size="14.00">22</text>
</g>
<!-- 21&#45;&gt;22 -->
<g id="edge28" class="edge">
<title>21&#45;&gt;22</title>
<path fill="none" stroke="black" d="M592.76,-361.8C608.61,-358.08 630.22,-353.01 648.14,-348.8"/>
<polygon fill="black" stroke="black" points="648.87,-352.23 657.81,-346.54 647.27,-345.41 648.87,-352.23"/>
<text text-anchor="middle" x="626" y="-360.29" font-family="Times,serif" font-size="14.00">&#39;0&#39;..&#39;9&#39;</text>
</g>
<!-- 22&#45;&gt;24 -->
<g id="edge29" class="edge">
<title>22&#45;&gt;24</title>
<path fill="none" stroke="black" d="M660.15,-332.29C638.13,-324.07 602.54,-313 570.6,-313 287.05,-313 287.05,-313 287.05,-313 253.94,-313 216.57,-317.8 189.55,-322.14"/>
<polygon fill="black" stroke="black" points="189.07,-318.68 179.78,-323.78 190.22,-325.58 189.07,-318.68"/>
<text text-anchor="middle" x="429.58" y="-316.2" font-family="Times,serif" font-size="14.00">&#39;0&#39;..&#39;9&#39; / last1, initts</text>
</g>
</g>
</svg>
